<svg id="Layer_1" data-name="Layer 1" xmlns="http://www.w3.org/2000/svg" viewBox="0 0 119.64 115.36"><defs><style>.cls-1,.cls-3{fill:#fff;stroke:#a2f3e2;stroke-miterlimit:10;}.cls-1{stroke-width:4px;}.cls-2{fill:#a2f3e2;}</style></defs><title>logo</title><path class="cls-1" d="M102.2,23.75a24.63,24.63,0,0,1-11-9.65C83.36,1.75,63.27-2,51.81,6.78c-3.84,2.93-7.73,4.4-11.88,3.59-7.54-.54-11.78.41-17.6,4.26C11,22.13,4.71,33,2.65,46.24c-1.55,10-.71,19.4,6.69,27.54,1.87,2,2.1,6.21,2,9.36-.48,11.42,4.7,19.49,14.17,25,8.83,5.17,18.43,6.06,28.46,4.47a40.81,40.81,0,0,1,12.22-.43c25.69,3.94,46.06-14,45.48-40a26.69,26.69,0,0,1,2.94-11.82C121.51,46.28,116.38,30.19,102.2,23.75Z"/><path class="cls-2" d="M41.74,52.56c-3.7,2.32-6,3.86-8.35,5.2a13.11,13.11,0,0,1-4.18,1.62c-3.1.52-5.95-.12-6.93-3.56s1-5.63,3.9-6.81c4.6-1.88,9.38-2.41,13.92.15,3.7,2.08,7.11,2.94,10.15-.86,6.81,6,14.21,6.23,20.9-.13,3.54,4.56,7.47,2.72,11.62.65,4.5-2.24,9.11-1.62,13.42.72,2.47,1.34,4.15,3.49,3.13,6.44a5.06,5.06,0,0,1-6.64,3.36c-4.08-1.4-7.87-3.65-12.21-5.75-3.1,3.32-3.14,8.09-4,12.57-.79,4.3-1.18,8.72-2.43,12.89-2.1,7-5.34,8.56-12.57,6.92A3.26,3.26,0,0,0,60,86c-6.66,1.74-10.44,0-12.47-6.61C46.23,75.26,46,70.79,45.12,66.5,44.19,62.05,43,57.65,41.74,52.56ZM67.46,76.63c-1.22,1.15-1.63,1.48-2,1.87a35.37,35.37,0,0,0-3.06,3.78c-.11.18,1.24,1.84,1.77,1.77,1.65-.24,3.9-.5,4.71-1.63a20.59,20.59,0,0,0,3.49-7.66c1.4-6.81,2.31-13.71,3.46-20.85C73.4,53,71,52.06,67.65,54a13.48,13.48,0,0,1-13.46.15,8.47,8.47,0,0,0-8.66-.08c1,5.41,1.89,10.51,2.83,15.6.57,3.1.7,6.4,2,9.19,1,2.12,3.24,3.79,5.26,5.19.57.4,2.87-.54,3.3-1.39s-.53-2.44-1.28-3.4a10.26,10.26,0,0,0-2.81-1.86l.29-.81ZM37.6,51.88l-.26-1.81c-3.09.38-6.29.39-9.22,1.29-1.34.41-2.15,2.56-3.2,3.92,1.82.34,3.87,1.38,5.39.86C32.92,55.23,35.19,53.35,37.6,51.88Zm46.7-2-.57,2c2.81,1.61,5.5,3.49,8.47,4.68,1.11.45,2.86-.7,4.32-1.13-.73-1.27-1.22-3.35-2.25-3.66A80.38,80.38,0,0,0,84.3,49.91Z"/><path class="cls-3" d="M67.48,76.61l-12.39,0-.29.82c1,.6,2.17,1,2.82,1.85s1.66,2.63,1.29,3.39-2.72,1.8-3.3,1.4c-2-1.39-4.3-3.06-5.27-5.17-1.26-2.79-1.4-6.09-2-9.18-1-5.09-1.87-10.19-2.87-15.6a8.49,8.49,0,0,1,8.66.06A13.51,13.51,0,0,0,67.61,54c3.31-2,5.75-1.05,8.21-.15-1.13,7.14-2,14.05-3.4,20.86A20.66,20.66,0,0,1,69,82.4c-.81,1.13-3,1.39-4.71,1.64-.52.07-1.88-1.59-1.77-1.76a35.49,35.49,0,0,1,3-3.8C65.86,78.09,66.26,77.77,67.48,76.61Z"/><path class="cls-3" d="M37.6,51.88c-2.41,1.47-4.68,3.35-7.29,4.26-1.52.52-3.57-.52-5.39-.86,1-1.36,1.86-3.51,3.2-3.92,2.93-.9,6.13-.91,9.22-1.29Z"/><path class="cls-3" d="M84.3,49.91a80.38,80.38,0,0,1,10,1.85c1,.31,1.52,2.39,2.25,3.66-1.46.43-3.21,1.58-4.32,1.13-3-1.19-5.66-3.07-8.47-4.68Z"/></svg>